<?xml version="1.0" encoding="utf-8"?>
<!-- Generator: Adobe Illustrator 16.0.0, SVG Export Plug-In . SVG Version: 6.00 Build 0)  -->
<!DOCTYPE svg PUBLIC "-//W3C//DTD SVG 1.1//EN" "http://www.w3.org/Graphics/SVG/1.1/DTD/svg11.dtd">
<svg version="1.1" id="Layer_1" xmlns="http://www.w3.org/2000/svg" xmlns:xlink="http://www.w3.org/1999/xlink" x="0px" y="0px"
	 width="381.44px" height="327.163px" viewBox="0 0 381.44 327.163" enable-background="new 0 0 381.44 327.163"
	 xml:space="preserve">
<g>
	<defs>
		<rect id="SVGID_1_" width="381.44" height="327.163"/>
	</defs>
	<clipPath id="SVGID_2_">
		<use xlink:href="#SVGID_1_"  overflow="visible"/>
	</clipPath>
	<path clip-path="url(#SVGID_2_)" fill="#F1CD53" d="M381,324.042c-3.305-0.539-7.18-4.299-11.902-11.286
		c-2.771-4.562-5.569-9.166-8.356-13.8c8.674-1.605,12.821-6.475,12.765-14.141c0.02-4.683-2.113-8.295-6.232-10.564
		c-3.246-1.877-7.371-2.805-12.346-2.805c-2.006,0-4.935,0.105-8.803,0.252c-8.795,0.336-15.894,0.027-18.522-0.246l-0.581-0.059
		v1.742c0,0,8.875,1.441,8.875,4.379c0.091,0.518,0.159,3.178,0.15,6.971v30.621c0.009,2.85-0.269,4.66-0.544,5.553
		c-0.623,2.037-7.169,3.5-7.169,3.5l-0.357,2.062l0.657-0.051c4.374-0.361,8.64-0.543,12.793-0.543
		c4.147,0,8.192,0.182,12.127,0.543l0.575,0.051v-1.863c0,0-6.362-1.986-8.119-3.178c-0.906-0.619-1.059-2.154-1.067-4.42
		c0-0.428,0.02-1.816,0.076-3.523c0.057-1.715,0.085-3.213,0.085-4.488v-8.491l5.581,0.005c6.583,8.781,11.524,16.945,16.668,25.65
		l0.165,0.283c0,0,4.64-0.279,6.85-0.279c2.206,0,4.604,0.084,6.489,0.254l0.575,0.051l0.009-2.109L381,324.042z M350.396,295.44
		h-5.349v-19.025c0,0,7.507-0.079,7.632-0.079c7.818,0.089,11.325,3.089,11.394,9.558c-0.02,3.905-1.365,6.414-4.079,7.862
		C357.947,294.854,354.741,295.446,350.396,295.44"/>
	<path clip-path="url(#SVGID_2_)" fill="#F1CD53" d="M41.713,300.761c-2.373-1.473-4.83-2.49-8.102-3.031
		c2.332-0.574,4.239-1.506,6.284-2.775c3.561-2.281,5.359-6.201,5.388-9.312c0.045-4.826-1.977-8.619-5.876-11.128
		c-3.317-2.228-7.489-3.063-12.458-3.063c-0.074,0-4.451,0.084-13.178,0.246c-1.496,0.031-2.921,0.033-4.284,0.047
		C4.241,271.79,0,271.407,0,271.407v1.881c0,0,8.167,1.074,8.881,4.982c0.085,0.52,0.329,40.077-0.32,41.471
		C6.966,323.159,0,324.245,0,324.245v1.975c0,0,5.148-0.492,10.859-0.422c1.302,0.018,2.662,0.012,4.067,0.039
		c9.559,0.221,14.34,0.334,14.425,0.334c4.991,0,9.19-1.152,12.558-3.489c3.881-2.612,5.872-6.448,5.861-11.286
		C47.787,306.829,45.713,303.196,41.713,300.761 M17.303,284.671c0.003-2.629,0.054-5.131,0.198-8.539
		c1.737-0.088,3.992-0.135,6.553-0.135c8.144,0.092,11.776,2.701,11.847,9.555c-0.051,6.436-3.927,9.176-12.785,9.26h-5.739
		L17.303,284.671z M23.694,321.603h0.003c0.002,0.025,0.005,0.047,0.008,0.072C23.702,321.649,23.699,321.624,23.694,321.603
		 M23.255,321.202c-0.04-0.002-0.074-0.006-0.113,0c-0.023,0-0.046,0.004-0.069,0.006c0.032-0.006,0.046-0.006,0.052-0.006h0.014
		c-0.179-0.006-2.116-0.078-5.592-0.215c-0.1-1.729-0.108-3.137-0.108-4.686V300.61h5.215c10.668,0.071,15.547,3.646,15.592,11.006
		C38.206,318.716,33.521,321.108,23.255,321.202"/>
	<path clip-path="url(#SVGID_2_)" fill="#F1CD53" d="M90.132,270.458c-8.391-0.002-15.167,2.699-20.181,8.111
		c-4.963,5.355-7.431,12.303-7.428,20.738c-0.003,7.885,2.388,14.504,7.179,19.734c4.895,5.412,11.314,8.127,19.105,8.121h0.039
		c8.277,0.002,14.968-3.031,19.915-9.055c4.612-5.619,6.912-12.689,6.906-21.121h0.006c0-7.718-2.283-14.082-6.85-18.99
		C104.084,272.968,97.814,270.456,90.132,270.458 M105.412,300.874c0,5.957-1.17,10.822-3.484,14.629
		c-2.79,4.564-6.81,6.787-12.317,6.805c-6.21-0.023-10.634-3.008-13.552-9.213c-2.179-4.605-3.281-10.504-3.281-17.688
		c0-5.638,1.348-10.24,4.023-13.888c3.034-4.149,7.11-6.192,12.413-6.2c10.776,0.023,16.136,8.213,16.201,25.555H105.412z"/>
	<path clip-path="url(#SVGID_2_)" fill="#F1CD53" d="M159.995,320.239h-15.538v-34.695c-0.003-4.229,0.077-6.352,0.156-7.4
		c0.272-3.496,9.445-4.955,9.445-4.955v-1.775c0,0-9.485,0.586-13.858,0.586c-4.357,0-13.374-0.596-13.374-0.596v1.752
		c0,0,8.872,1.48,8.872,4.83c0.093,0.549,0.156,3.088,0.156,6.875v29.379c0.005,2.891,0.144,4.271-0.539,5.604
		c-1.688,3.286-8.489,4.209-8.489,4.209v2.149l0.561-0.031c5.668-0.334,12.079-0.498,19.079-0.492
		c6.997-0.006,14.583,0.158,22.611,0.492l0.524,0.02l0.717-14.529h-2.289C168.029,311.661,166.868,320.56,159.995,320.239"/>
	<path clip-path="url(#SVGID_2_)" fill="#F1CD53" d="M206.879,256.905v-0.057c-0.051-2.438-2.125-4.057-4.182-4.053
		c-1.473,0.002-2.811,0.877-3.954,2.027l-11.411,13.242h4.238l12.998-7.431c1.483-0.999,2.276-2.259,2.316-3.661L206.879,256.905z"
		/>
	<path clip-path="url(#SVGID_2_)" fill="#F1CD53" d="M193.694,272.116c-3.124,0-7.331-0.223-12.623-0.666l-0.577-0.047v1.785
		c0,0,7.359,1.652,8.337,5.484c0.472,1.867,0.252,5.08,0.359,8.514c0,0,0.249,12.639,0.167,19.409
		c-0.11,9.194-0.431,13.253-2.739,15.171c-2.042,1.697-6.124,2.213-6.124,2.213v2.236l0.577-0.051
		c4.958-0.436,9.17-0.656,12.623-0.656c3.015,0,7.113,0.221,12.295,0.662l0.575,0.045v-2.236c0,0-4.06-0.732-6.219-2.299
		c-1.623-1.178-2.699-5.891-2.611-15.085c0-1.257,0.113-18.729,0.167-19.388c0.104-3.461,0.06-6.66,0.275-8.568
		c0.497-4.371,8.388-5.451,8.388-5.451v-1.785l-0.575,0.047C200.539,271.894,196.432,272.116,193.694,272.116"/>
	<path clip-path="url(#SVGID_2_)" fill="#F1CD53" d="M268.425,273.286l0.411-0.098v-1.818l-0.598,0.086
		c-2.462,0.322-5.1,0.49-7.904,0.49c-2.811,0-5.79-0.166-8.951-0.496l-0.581-0.057v1.754l0.359,0.123
		c2.222,0.701,5.354,1.678,5.222,2.758c-0.946,4.943-9.845,27.694-12.15,33.268c-1.757-4.1-13.213-32.285-13.162-32.984
		c-0.011-0.031-0.662-1.533,6.148-3.023l0.396-0.1v-1.793c0,0-7.638,0.541-11.292,0.547c-9.116,0.014-11.79-0.541-11.79-0.541v1.754
		c0,0,5.359,1.363,6.918,4.887c5.631,12.754,12.13,29.18,19.027,48.768l0.119,0.354h2.654l0.131-0.352
		c5.13-14.07,16.011-42.223,19.257-48.949C263.745,275.577,265.677,273.923,268.425,273.286"/>
	<path clip-path="url(#SVGID_2_)" fill="#F1CD53" d="M295.818,270.054l-0.137-0.342h-3.909l-0.136,0.322
		c-8.51,20.234-11.325,26.336-18.526,43.188c-1.085,2.537-1.644,4.367-2.776,6.496c-1.471,2.76-6.728,4.352-6.728,4.352v2.162
		l0.586-0.066c3.065-0.324,6.176-0.492,9.317-0.492s6.319,0.164,9.532,0.492l0.584,0.062v-2.158l-6.952-2.629
		c2.349-6.037,3.836-9.898,5.235-13.232l9.139,0.07l10.17,0.16c1.441,3.191,2.827,7.66,4.504,13.127
		c-2.386,0.951-4.915,1.738-7.592,2.357l-0.408,0.09v2.203l0.572-0.051c3.683-0.324,7.614-0.492,11.711-0.492
		s8.359,0.164,12.708,0.502l0.569,0.037v-2.143c0,0-4.728-1.28-6.354-2.912c-1.201-1.207-2.969-6.365-2.969-6.365
		C302.693,287.534,298.558,277.192,295.818,270.054 M283.394,304.394l8.24-20.805l7.82,20.736L283.394,304.394z"/>
	<path clip-path="url(#SVGID_2_)" fill="#F1CD53" d="M131.01,240.747c-0.195,0-9.139-0.086-9.634-0.092
		c-0.133-2.771-0.128-4.127-0.128-4.887v-4.808h4.029c0.606,0.007,1.28-0.009,2.028-0.036c0.765-0.027,1.955,0.021,2.17,0.021
		c0.96,0.012,2.184,0.807,2.765,3.686l0.056,0.184h0.714l-0.008-0.275c-0.043-1.717-0.063-3.381-0.063-5
		c0-1.622,0.02-3.191,0.063-4.715l0.002-0.277h-0.699l-0.062,0.18c-0.491,2.553-1.635,3.447-2.582,3.463
		c-0.211,0-1.591,0.035-2.356,0.01c-0.748-0.027-1.419-0.045-2.028-0.045h-4.029v-4.297c0-0.729,0.062-2.008,0.199-4.248
		l5.563-0.078c0.468,0,1.074-0.014,1.819-0.041c0.663-0.027,1.478-0.004,1.688-0.004c0.983,0.004,2.615,0.332,3.043,3.682
		l0.057,0.182h0.719l-0.014-0.283c-0.032-0.555-0.04-1.109-0.04-1.676c0-1.432,0.065-2.908,0.125-4.439l0.008-0.289l-0.286,0.012
		c-3.629,0.164-7.317,0.248-10.949,0.248c-3.637,0-7.215-0.08-10.617-0.248l-0.278-0.012v0.893c0,0,4.363,0.652,4.419,2.186
		c0.04,0.256,0.074,1.715,0.074,3.609c0,0,0.232,8.162-0.006,13.375c-0.076,1.73,0.097,3.795-0.266,4.434
		c-0.887,1.561-4.221,1.832-4.221,1.832v0.951l0.284-0.012c4.198-0.252,8.501-0.371,11.966-0.371c3.484,0,6.764,0.119,9.827,0.371
		l0.291,0.021v-0.283c0-2.146,0.023-4.482,0.187-6.887l0.02-0.285h-0.728C134.132,236.497,133.52,240.745,131.01,240.747
		 M162.938,231.104c-1.901,0-4.258-0.082-6.236-0.162l-0.277-0.014v0.756c0,0,4.334,0.551,4.334,2.678v4.967l-0.042,1.377
		c-1.136,0.441-2.173,0.662-3.612,0.701c-3.34,0.092-5.994-0.949-7.394-2.729c-1.849-2.346-2.566-5.205-2.685-8.283
		c-0.119-3.144,0.748-5.869,2.476-8.066c1.7-2.16,4.555-3.17,8.002-3.176c2.361,0.006,3.295,0.332,3.987,0.996
		c0.804,0.773,1.767,3.945,1.767,3.945h0.811l-0.018-0.281c-0.059-1.195-0.082-2.355-0.085-3.479c0-1.131,0.028-2.23,0.085-3.299
		l0.012-0.232l-0.222-0.045c-1.863-0.385-3.829-0.582-5.909-0.578c-4.373-0.004-8.566,1.51-11.348,3.938
		c-3.286,2.867-5.048,6.377-5.043,10.682c-0.005,4.264,1.533,7.689,4.596,10.184c2.827,2.297,6.356,3.473,10.747,3.473
		c2.717,0,5.66-0.402,8.028-1.176l0.261-0.082l-0.012-0.207c-0.056-1.059-0.084-4.119-0.084-8.57c0-2.355,3.303-2.752,3.303-2.752
		v-0.74l-0.278,0.014C166.276,231.022,164.837,231.104,162.938,231.104 M104.206,232.146c-1.649-1.832-6.065-3.74-7.943-4.674
		c-2.17-1.186-3.185-2.592-3.19-4.256c0.005-1.254,0.785-3.408,3.181-4.1c0.513-0.141,3.589-0.889,5.295,0.412
		c1.374,1.049,1.433,4.193,1.433,4.193l0.725,0.004l0.266-6.133c0,0-2.787-1.412-6.376-1.412c-2.467,0-4.589,0.629-6.343,1.906
		c-1.986,1.439-3.864,3.752-2.632,7.711c0.967,3.105,6.57,5.939,8.309,6.867c4.703,2.373,3.516,5.848,3.516,5.848
		c-0.468,1.523-1.89,2.473-3.573,2.945c-1.132,0.318-5.495,0.277-6.175-0.74c-0.49-0.732-0.94-4.975-0.94-4.975l-1.071,0.254
		l-0.742,7.178c0,0,2.407,1.141,6.393,1.248c2.944,0.08,5.414-0.572,7.391-1.727c2.433-1.403,3.807-3.512,3.767-6.283
		C105.453,233.53,104.206,232.146,104.206,232.146 M255.507,216.168c-4.192,0-7.575,1.347-10.076,4.058
		c-2.476,2.666-3.714,6.135-3.714,10.354c0,3.936,1.198,7.236,3.586,9.854c2.445,2.697,5.65,4.057,9.544,4.053h0.018
		c4.136,0,7.487-1.512,9.946-4.518c2.306-2.809,3.455-6.336,3.45-10.55c0.005-3.854-1.134-7.036-3.417-9.485
		C262.473,217.421,259.343,216.168,255.507,216.168 M263.133,231.354c0,2.977-0.58,5.402-1.733,7.309
		c-1.399,2.273-3.396,3.387-6.153,3.396c-3.099-0.014-5.306-1.502-6.762-4.598c-1.088-2.303-1.643-5.246-1.638-8.835
		c0-2.813,0.672-5.11,2.009-6.933c1.514-2.074,3.547-3.088,6.192-3.098c5.383,0.014,8.057,4.104,8.091,12.758H263.133z
		 M197.701,216.923c-1.813,0-3.658-0.082-5.406-0.242l-0.294-0.027v0.91c0,0,3.376,0.514,3.881,1.986
		c0.351,1.707,0.526,4.068,0.526,6.754c0,0.93,0.034,10.637-1.598,12.723c-1.085,1.385-2.79,2.271-5.014,2.281
		c-2.934-0.006-4.62-0.764-5.773-2.17c-2.737-3.338-1.383-17.678-1.363-18.758c0.037-2,4.345-2.777,4.345-2.777v-0.945l-0.283,0.023
		c-2.155,0.16-4.404,0.242-6.603,0.242c-2.198,0-4.36-0.082-6.329-0.242l-0.286-0.027v0.959c0,0,4.604,0.924,4.604,3.215
		c0,0.801-0.731,8.529-0.686,11.699c0.048,3.576,0.629,6.326,1.941,8.234c1.761,2.473,5.555,3.689,9.64,3.691
		c4.26,0,7.473-1.491,9.11-4.498c1.076-2.068,1.603-5.137,1.603-9.25c0-0.199,0-0.404-0.005-0.613
		c-0.028-3.162-0.046-5.589-0.046-7.283c0-1.689,0.031-2.672,0.046-2.865c0.158-1.979,3.507-2.396,3.507-2.396v-0.9l-0.295,0.035
		C201.295,216.841,199.514,216.923,197.701,216.923 M221.346,228.694h-2.666v-9.477l3.615-0.039h0.164
		c3.915,0.039,5.66,1.535,5.697,4.762c-0.009,1.939-0.675,3.191-2.037,3.912C225.105,228.401,223.51,228.694,221.346,228.694
		 M230.669,237.323c-1.383-2.273-2.776-4.566-4.164-6.875c4.317-0.803,6.385-3.225,6.359-7.049c0.009-2.33-1.051-4.137-3.107-5.266
		c-1.62-0.939-3.675-1.395-6.156-1.395c-0.994,0-2.459,0.039-4.382,0.121c-1.921,0.053-3.887,0.086-4.839,0.086
		c-1.623,0-3.082-0.072-4.391-0.207l-0.295-0.033v1.066c0,0,4.049,0.309,4.422,2.18c0.046,0.26,0.077,1.393,0.077,3.287v15.1
		c0,1.42-0.15,2.557-0.272,3.01c-0.323,1.191-3.572,1.742-3.572,1.742l-0.179,0.943l0.332-0.023c2.173-0.182,4.297-0.27,6.368-0.27
		c2.07,0,4.085,0.092,6.045,0.27l0.295,0.029v-0.852c0,0-2.903-0.818-3.94-1.66c-0.419-0.342-0.638-0.848-0.641-1.977
		c0-0.211,0.012-1.134,0.043-1.986c0.022-0.854,0.037-1.604,0.037-2.242v-4.225h2.773c3.283,4.375,5.744,8.447,8.313,12.783
		l0.08,0.137l0.17-0.008c1.017-0.084,2.142-0.125,3.24-0.125c1.104,0,2.388,0.041,3.331,0.125l0.289,0.029v-1.051l-0.221-0.035
		C235.043,242.687,233.02,240.808,230.669,237.323 M290.555,232.272l-0.21,0.16l0.21-0.164c-0.085-0.109-0.17-0.211-0.255-0.308
		l-0.031-0.032c-0.799-0.9-1.759-1.543-2.47-1.955c-1.776-0.889-3.19-1.568-5.068-2.502c-2.17-1.186-3.184-2.592-3.189-4.256
		c0.006-1.254,0.459-2.295,1.399-3.186c0.142-0.139,0.289-0.254,0.441-0.357c-0.009,0.008,0.04-0.025,0.125-0.076
		c0.377-0.234,0.776-0.383,1.215-0.48c0.513-0.141,1.159-0.244,1.94-0.244c0.437,0,1.105,0.031,1.635,0.117
		c0.535,0.041,1.025,0.135,1.641,0.361l1.514,4.371l0.724,0.004l0.267-6.133l-0.164-0.074c-1.989-0.889-4.06-1.338-6.213-1.338
		c-2.467,0-4.589,0.629-6.343,1.906c-1.985,1.439-3,3.408-2.997,5.826c0,0.783,0.142,1.523,0.408,2.221
		c0.867,2.086,2.68,3.355,3.555,3.881c0.128,0.07,0.241,0.133,0.354,0.197v0.002l0.134,0.076c1.58,0.902,2.881,1.796,4.62,2.721
		c2.184,1.27,3.201,2.648,3.201,4.133c-0.003,0.535-0.068,1.02-0.188,1.477l-0.011,0.02c-0.822,2.592-3.768,2.838-3.773,2.85
		c-0.731,0.113-1.377,0.158-1.955,0.158c-2.379,0.031-4.006-0.908-4.011-0.963l-0.833-4.941l-0.896,0.203l-0.176,0.051l-0.742,7.178
		l0.192,0.077c2.009,0.782,4.08,1.171,6.201,1.171c2.943,0,5.414-0.572,7.392-1.727c2.433-1.403,3.683-3.559,3.677-6.332
		C291.875,234.825,291.436,233.454,290.555,232.272"/>
	<path clip-path="url(#SVGID_2_)" fill="#F1CD53" d="M106.234,175.208h0.003H106.234L106.234,175.208z M106.234,109.172v21.364
		c2.706-1.919,5.795-3.876,9.339-5.873C113.196,122.039,108.748,116.468,106.234,109.172 M190.01,72.787
		c0.358-3.923-0.117-6.783-1.292-7.93c-2.589-2.526-5.669-4.323-9.113-5.471C182.366,64.2,185.792,68.873,190.01,72.787
		 M140.415,57.204c8.267-4.045,17.858-6.468,26.925-6.529c-4.481-9.763-5.917-17.456-5.917-17.456s-10.861-2.415-11.507-5.011
		c0,0,0.488-9.091,11.461-17.499h-55.143V88.23C109.911,78.214,119.642,67.369,140.415,57.204 M228.534,175.208h40.891v-39.902
		C259.449,147.823,245.932,161.328,228.534,175.208 M269.425,113.336V75.78c-5.884-3.997-15.537-5.248-29.102-3.196
		c11.472-4.863,21.253-6.986,29.102-6.802V10.709h-93.991c-5.459,2.927-10.581,7.385-14.81,13.991
		c-0.362,0.568,8.374,4.64,8.374,4.64c-0.003,0.001,1.551,10.359,6.586,21.986c7.859,1.364,14.794,4.921,19.368,11.265
		c1.34,1.859,2.53,7.205,1.093,14.855c0.513,0.324,1.023,0.649,1.554,0.949c10.005-2.96,17.399-13.49,17.382-13.508
		c0.018-0.018-0.867,12.695-16.932,19.517c-1.134-0.572-2.223-1.183-3.29-1.812c-3.419,11.011-12.049,25.416-31.163,40.723
		c-14.167-4.532-16.711-12.951-16.711-12.951c6.226,7.286,16.334,7.192,16.334,7.192c15.128-11.727,23.031-27.509,25.774-38.845
		c-7.979-6.074-13.785-13.633-17.944-20.846c-8.366-0.39-17.963,1.916-27.631,6.253c-47.276,21.2-32.27,52.436-27.47,60.334
		c4.393-2.457,9.45-4.968,15.26-7.528c-12.418,7.255-20.235,14.461-24.974,21.206v37.075l0.003,0.003h113.575
		C244.103,151.558,260.775,130.33,269.425,113.336 M189.87,16.427c22.468-8.13,37.24,3.395,37.24,3.395s-12.794-2.595-24.665,0.595
		L189.87,16.427z M129.596,109.703c0,0-20.546-21.976,31.745-35.747C124.364,92.194,129.596,109.703,129.596,109.703 M142.16,88.738
		c0,0,7.756,24.127-11.864,36.375C130.296,125.113,139.494,109.252,142.16,88.738 M143.792,175.196H130.37
		c0,0,16.759-28.419,47.229-33.175C177.636,142.071,155.098,149.837,143.792,175.196 M183.955,108.689
		c10.876-9.386,23.459-7.01,27.62-1.461c5.966,7.954,1.995,16.614-5.102,22.991c0,0,8.818-9.669,1.932-18.926
		c-2.909-3.912-12.087-5.946-20.115,0.792c-8.028,6.738-12.782,21.304,1.972,27.041C172.93,139.828,170.061,120.681,183.955,108.689
		 M197.973,175.159l-12.975,0.045c43.988-22.836,26.152-47.013,26.152-47.013S237.408,151.575,197.973,175.159 M212.176,31.392
		l-11.403-4.441c21.375-3.082,26.186,3.942,26.186,3.942S222.34,29.536,212.176,31.392 M224.51,38.62
		c1.657,17.783,13.802,34.846,13.802,34.846s-11.903-6.555-15.683-16.274C218.742,47.177,224.51,38.62,224.51,38.62 M106.234,138.13
		v-7.594c-36.86,26.126-0.118,44.611,0,44.671v-0.002C106.139,175.097,91.726,158.781,106.234,138.13 M221.904,10.688
		c0,0-19.054-17.734-46.466-7.515c-5.982,2.229-10.553,4.848-14.061,7.536h14.057C196.219-0.434,221.904,10.688,221.904,10.688
		 M269.425,65.782v9.998c9.32,6.331,9.155,19.569,0,37.556v21.97C300.761,95.986,297.204,66.431,269.425,65.782 M189.15,202.864
		c14.876-9.264,27.957-18.539,39.384-27.656h-8.723C210.661,184.117,200.439,193.366,189.15,202.864 M106.234,109.172V88.23
		C103.406,95.931,104.156,103.141,106.234,109.172"/>
</g>
</svg>
